<svg fill="#000000" version="1.1" id="Capa_1" xmlns="http://www.w3.org/2000/svg" xmlns:xlink="http://www.w3.org/1999/xlink" viewBox="0 0 389.683 389.683" xml:space="preserve"><g id="SVGRepo_bgCarrier" stroke-width="0"></g><g id="SVGRepo_tracerCarrier" stroke-linecap="round" stroke-linejoin="round"></g><g id="SVGRepo_iconCarrier"> <g> <path d="M100.914,387.406c40.946-8.688,69.852-40.066,70.426-73.561c0.259-1.486,0.439-2.989,0.439-4.508V92.806L336.561,58.04 v147.129c-14.684-4.284-31.258-5.105-48.17-1.52c-46.313,9.831-77.291,48.699-69.204,86.817 c8.087,38.114,52.201,61.021,98.499,51.194c40.943-8.688,69.85-40.065,70.431-73.568c0.26-1.479,0.429-2.973,0.429-4.492V25.986 c0-0.02,0-0.034,0-0.042c0-0.817-0.16-1.657-0.245-2.48c-0.092-0.939-0.124-1.897-0.309-2.809c0-0.016,0-0.024,0-0.032 c-0.06-0.268-0.184-0.485-0.236-0.747c-0.336-1.429-0.757-2.832-1.318-4.15c-0.284-0.653-0.673-1.22-0.997-1.837 c-0.466-0.874-0.882-1.759-1.447-2.567c-0.469-0.691-1.05-1.288-1.587-1.925c-0.529-0.643-1.038-1.327-1.635-1.914 c-0.545-0.551-1.187-1.008-1.8-1.501c-0.693-0.565-1.342-1.17-2.096-1.665c-0.589-0.398-1.263-0.689-1.907-1.034 c-0.83-0.457-1.627-0.952-2.501-1.311c-0.802-0.331-1.623-0.519-2.452-0.763c-0.782-0.235-1.539-0.533-2.36-0.697 c-1.303-0.269-2.653-0.347-4.004-0.403C363.287,0.092,362.934,0,362.565,0c-0.016,0-0.032,0.008-0.048,0.008 c-0.901,0-1.823,0.18-2.745,0.276c-0.842,0.084-1.724,0.1-2.537,0.272c-0.016,0.008-0.027,0.008-0.044,0.008L140.419,46.31 c-12.021,2.532-20.626,13.148-20.626,25.433v179.194c-14.669-4.292-31.26-5.105-48.175-1.519 c-46.302,9.83-77.289,48.698-69.194,86.812C10.508,374.318,54.606,397.24,100.914,387.406z"></path> </g> </g></svg>