<svg width="76" height="61" viewBox="0 0 76 61" fill="none" xmlns="http://www.w3.org/2000/svg">
<path d="M31.368 16.96V13.972H38.136V40H34.824V16.96H31.368Z" fill="#1ED760"/>
<path d="M66.8885 0.549683H9.12655C4.64033 0.549683 1 4.20512 1 8.67623V43.2216C1 47.7078 4.64033 51.3482 9.12655 51.3482H25.8932C26.9204 51.3482 27.7512 50.5174 27.7512 49.4902C27.7512 48.4631 26.9204 47.6323 25.8932 47.6323H9.12655C6.67952 47.6323 4.70075 45.6536 4.70075 43.2065V8.67623C4.70075 6.22921 6.67952 4.25044 9.12655 4.25044H66.8885C69.3355 4.25044 71.3143 6.22921 71.3143 8.67623V43.2216C71.3143 45.6687 69.3355 47.6474 66.8885 47.6474H42.4786L48.6868 41.4392C49.4119 40.7142 49.4119 39.5511 48.6868 38.826C48.3243 38.4635 47.8561 38.2823 47.3727 38.2823C46.8893 38.2823 46.4211 38.4635 46.0586 38.826L36.6934 48.1912C35.9683 48.9163 35.9683 50.0794 36.6934 50.8044L46.0586 60.1696C46.7836 60.8946 47.9467 60.8946 48.6717 60.1696C49.3968 59.4445 49.3968 58.2814 48.6717 57.5564L42.4635 51.3482H66.8734C71.3596 51.3482 75 47.7078 75 43.2216V8.67623C75.0151 4.20512 71.3747 0.549683 66.8885 0.549683Z" fill="#1ED760" stroke="#1ED760" stroke-width="0.408247"/>
</svg>
